<mxfile host="app.diagrams.net" modified="2024-05-27T10:54:30.723Z" agent="Mozilla/5.0 (Windows NT 10.0; Win64; x64) AppleWebKit/537.36 (KHTML, like Gecko) Chrome/125.0.0.0 Safari/537.36" etag="r_2U1_BYOngpsWUZaKRe" version="24.4.8" type="google">
  <diagram name="Страница — 1" id="Uyfa7iroorvZPPmsPXCA">
    <mxGraphModel grid="1" page="1" gridSize="10" guides="1" tooltips="1" connect="1" arrows="1" fold="1" pageScale="1" pageWidth="827" pageHeight="1169" math="0" shadow="0">
      <root>
        <mxCell id="0" />
        <mxCell id="1" parent="0" />
        <mxCell id="pViqL8sI9y89aVCBjC1K-9" style="edgeStyle=orthogonalEdgeStyle;rounded=0;orthogonalLoop=1;jettySize=auto;html=1;entryX=0;entryY=0.5;entryDx=0;entryDy=0;" edge="1" parent="1" source="pViqL8sI9y89aVCBjC1K-1" target="pViqL8sI9y89aVCBjC1K-2">
          <mxGeometry relative="1" as="geometry" />
        </mxCell>
        <mxCell id="pViqL8sI9y89aVCBjC1K-1" value="&lt;font size=&quot;3&quot;&gt;Камера&lt;/font&gt;" style="rounded=0;whiteSpace=wrap;html=1;" vertex="1" parent="1">
          <mxGeometry x="130" y="170" width="60" height="60" as="geometry" />
        </mxCell>
        <mxCell id="pViqL8sI9y89aVCBjC1K-17" style="edgeStyle=orthogonalEdgeStyle;rounded=0;orthogonalLoop=1;jettySize=auto;html=1;entryX=0;entryY=0.5;entryDx=0;entryDy=0;" edge="1" parent="1" source="pViqL8sI9y89aVCBjC1K-2" target="pViqL8sI9y89aVCBjC1K-3">
          <mxGeometry relative="1" as="geometry" />
        </mxCell>
        <mxCell id="pViqL8sI9y89aVCBjC1K-2" value="&lt;font size=&quot;3&quot;&gt;МП&lt;/font&gt;" style="rounded=0;whiteSpace=wrap;html=1;" vertex="1" parent="1">
          <mxGeometry x="270" y="170" width="60" height="60" as="geometry" />
        </mxCell>
        <mxCell id="pViqL8sI9y89aVCBjC1K-18" style="edgeStyle=orthogonalEdgeStyle;rounded=0;orthogonalLoop=1;jettySize=auto;html=1;entryX=0;entryY=0.5;entryDx=0;entryDy=0;" edge="1" parent="1" source="pViqL8sI9y89aVCBjC1K-3" target="pViqL8sI9y89aVCBjC1K-5">
          <mxGeometry relative="1" as="geometry" />
        </mxCell>
        <mxCell id="pViqL8sI9y89aVCBjC1K-3" value="&lt;font size=&quot;3&quot;&gt;MUX&lt;/font&gt;" style="rounded=0;whiteSpace=wrap;html=1;" vertex="1" parent="1">
          <mxGeometry x="400" y="170" width="60" height="60" as="geometry" />
        </mxCell>
        <mxCell id="pViqL8sI9y89aVCBjC1K-16" style="edgeStyle=orthogonalEdgeStyle;rounded=0;orthogonalLoop=1;jettySize=auto;html=1;entryX=0.5;entryY=1;entryDx=0;entryDy=0;" edge="1" parent="1" source="pViqL8sI9y89aVCBjC1K-4" target="pViqL8sI9y89aVCBjC1K-2">
          <mxGeometry relative="1" as="geometry" />
        </mxCell>
        <mxCell id="pViqL8sI9y89aVCBjC1K-4" value="&lt;font size=&quot;3&quot;&gt;РЗ&lt;/font&gt;" style="rounded=0;whiteSpace=wrap;html=1;" vertex="1" parent="1">
          <mxGeometry x="270" y="300" width="60" height="60" as="geometry" />
        </mxCell>
        <mxCell id="pViqL8sI9y89aVCBjC1K-19" style="edgeStyle=orthogonalEdgeStyle;rounded=0;orthogonalLoop=1;jettySize=auto;html=1;entryX=0;entryY=0.5;entryDx=0;entryDy=0;" edge="1" parent="1" source="pViqL8sI9y89aVCBjC1K-5" target="pViqL8sI9y89aVCBjC1K-6">
          <mxGeometry relative="1" as="geometry" />
        </mxCell>
        <mxCell id="pViqL8sI9y89aVCBjC1K-5" value="&lt;font size=&quot;3&quot;&gt;АЦП&lt;/font&gt;" style="rounded=0;whiteSpace=wrap;html=1;" vertex="1" parent="1">
          <mxGeometry x="530" y="170" width="60" height="60" as="geometry" />
        </mxCell>
        <mxCell id="pViqL8sI9y89aVCBjC1K-20" style="edgeStyle=orthogonalEdgeStyle;rounded=0;orthogonalLoop=1;jettySize=auto;html=1;entryX=0;entryY=0.5;entryDx=0;entryDy=0;" edge="1" parent="1" source="pViqL8sI9y89aVCBjC1K-6" target="pViqL8sI9y89aVCBjC1K-7">
          <mxGeometry relative="1" as="geometry" />
        </mxCell>
        <mxCell id="pViqL8sI9y89aVCBjC1K-6" value="&lt;font size=&quot;3&quot;&gt;RAM&lt;/font&gt;" style="rounded=0;whiteSpace=wrap;html=1;" vertex="1" parent="1">
          <mxGeometry x="660" y="170" width="60" height="60" as="geometry" />
        </mxCell>
        <mxCell id="pViqL8sI9y89aVCBjC1K-15" style="edgeStyle=orthogonalEdgeStyle;rounded=0;orthogonalLoop=1;jettySize=auto;html=1;entryX=1;entryY=0.5;entryDx=0;entryDy=0;" edge="1" parent="1" source="pViqL8sI9y89aVCBjC1K-7" target="pViqL8sI9y89aVCBjC1K-4">
          <mxGeometry relative="1" as="geometry">
            <Array as="points">
              <mxPoint x="820" y="330" />
            </Array>
          </mxGeometry>
        </mxCell>
        <mxCell id="pViqL8sI9y89aVCBjC1K-21" style="edgeStyle=orthogonalEdgeStyle;rounded=0;orthogonalLoop=1;jettySize=auto;html=1;entryX=0;entryY=0.25;entryDx=0;entryDy=0;exitX=1;exitY=0.25;exitDx=0;exitDy=0;" edge="1" parent="1" source="pViqL8sI9y89aVCBjC1K-7" target="pViqL8sI9y89aVCBjC1K-8">
          <mxGeometry relative="1" as="geometry" />
        </mxCell>
        <mxCell id="pViqL8sI9y89aVCBjC1K-7" value="&lt;font size=&quot;3&quot;&gt;MCU&lt;/font&gt;" style="rounded=0;whiteSpace=wrap;html=1;" vertex="1" parent="1">
          <mxGeometry x="790" y="170" width="60" height="60" as="geometry" />
        </mxCell>
        <mxCell id="pViqL8sI9y89aVCBjC1K-22" style="edgeStyle=orthogonalEdgeStyle;rounded=0;orthogonalLoop=1;jettySize=auto;html=1;entryX=1;entryY=0.75;entryDx=0;entryDy=0;exitX=0;exitY=0.75;exitDx=0;exitDy=0;" edge="1" parent="1" source="pViqL8sI9y89aVCBjC1K-8" target="pViqL8sI9y89aVCBjC1K-7">
          <mxGeometry relative="1" as="geometry" />
        </mxCell>
        <mxCell id="pViqL8sI9y89aVCBjC1K-8" value="&lt;font size=&quot;3&quot;&gt;РП&lt;/font&gt;" style="rounded=0;whiteSpace=wrap;html=1;" vertex="1" parent="1">
          <mxGeometry x="920" y="170" width="60" height="60" as="geometry" />
        </mxCell>
        <mxCell id="pViqL8sI9y89aVCBjC1K-11" value="" style="endArrow=none;html=1;rounded=0;" edge="1" parent="1">
          <mxGeometry width="50" height="50" relative="1" as="geometry">
            <mxPoint x="240" y="80" as="sourcePoint" />
            <mxPoint x="240" y="400" as="targetPoint" />
          </mxGeometry>
        </mxCell>
        <mxCell id="pViqL8sI9y89aVCBjC1K-12" value="" style="endArrow=none;html=1;rounded=0;" edge="1" parent="1">
          <mxGeometry width="50" height="50" relative="1" as="geometry">
            <mxPoint x="240" y="400" as="sourcePoint" />
            <mxPoint x="880" y="400" as="targetPoint" />
          </mxGeometry>
        </mxCell>
        <mxCell id="pViqL8sI9y89aVCBjC1K-13" value="" style="endArrow=none;html=1;rounded=0;" edge="1" parent="1">
          <mxGeometry width="50" height="50" relative="1" as="geometry">
            <mxPoint x="880" y="400" as="sourcePoint" />
            <mxPoint x="880" y="80" as="targetPoint" />
          </mxGeometry>
        </mxCell>
        <mxCell id="pViqL8sI9y89aVCBjC1K-14" value="" style="endArrow=none;html=1;rounded=0;" edge="1" parent="1">
          <mxGeometry width="50" height="50" relative="1" as="geometry">
            <mxPoint x="240" y="80" as="sourcePoint" />
            <mxPoint x="880" y="80" as="targetPoint" />
          </mxGeometry>
        </mxCell>
      </root>
    </mxGraphModel>
  </diagram>
</mxfile>
